<svg xmlns="http://www.w3.org/2000/svg" version="1.1" xmlns:xlink="http://www.w3.org/1999/xlink" xmlns:svgjs="http://svgjs.dev/svgjs" width="1500" height="1500" viewBox="0 0 1500 1500"><g transform="matrix(1,0,0,1,-0.323615160350073,-0.3236151603499593)"><svg viewBox="0 0 343 343" data-background-color="#000000" preserveAspectRatio="xMidYMid meet" height="1500" width="1500" xmlns="http://www.w3.org/2000/svg" xmlns:xlink="http://www.w3.org/1999/xlink"><g id="tight-bounds" transform="matrix(1,0,0,1,0.0740000000000407,0.07400000000001228)"><svg viewBox="0 0 342.85155851775386 342.85155851775386" height="342.85155851775386" width="342.85155851775386"><rect width="342.852" height="342.852" fill="url(#f9fcf9a9-35c4-4ada-8470-e02b7e06d62e)" mask="url(#872c45cf-51bb-4570-af5e-1038882d97d1)" data-fill-palette-color="tertiary"></rect><g><svg></svg></g><g><svg viewBox="0 0 342.85155851775386 342.85155851775386" height="342.85155851775386" width="342.85155851775386"><g><path d="M0 171.426c0-94.676 76.75-171.426 171.426-171.426 94.676 0 171.426 76.75 171.426 171.426 0 94.676-76.75 171.426-171.426 171.426-94.676 0-171.426-76.75-171.426-171.426zM171.426 339.785c92.982 0 168.359-75.377 168.359-168.359 0-92.982-75.377-168.359-168.359-168.359-92.982 0-168.359 75.377-168.359 168.359 0 92.982 75.377 168.359 168.359 168.359z" data-fill-palette-color="tertiary" fill="url(#f9fcf9a9-35c4-4ada-8470-e02b7e06d62e)" stroke="transparent"></path><ellipse rx="164.56874808852186" ry="164.56874808852186" cx="171.42577925887693" cy="171.42577925887693" fill="url(#f9fcf9a9-35c4-4ada-8470-e02b7e06d62e)" stroke="transparent" stroke-width="0" fill-opacity="1" data-fill-palette-color="tertiary"></ellipse></g><g transform="matrix(1,0,0,1,64.84655864529837,134.70862731223892)"><svg viewBox="0 0 213.1584412271571 73.43430389327601" height="73.43430389327601" width="213.1584412271571"><g><svg viewBox="0 0 213.1584412271571 73.43430389327601" height="73.43430389327601" width="213.1584412271571"><g><svg viewBox="0 0 213.1584412271571 73.43430389327601" height="73.43430389327601" width="213.1584412271571"><g><svg viewBox="0 0 213.1584412271571 73.43430389327601" height="73.43430389327601" width="213.1584412271571"><g id="textblocktransform"><svg viewBox="0 0 213.1584412271571 73.43430389327601" height="73.43430389327601" width="213.1584412271571" id="textblock"><g><svg viewBox="0 0 213.1584412271571 73.43430389327601" height="73.43430389327601" width="213.1584412271571"><g transform="matrix(1,0,0,1,0,0)"><svg width="213.1584412271571" viewBox="0.4999999999999991 -37 239.69999999999996 78.20000000000002" height="73.43430389327601" data-palette-color="#000000"><svg></svg><svg></svg><g class="wordmark-text-0" data-fill-palette-color="quaternary" id="text-0"><path d="M32.9-1.25l-4.35 1.75-3.9-10h-16.2l-3.9 9.9-4.05-1.65 13.7-33.75h5.2zM16.55-30.3l-6.6 16.8h13.15zM45.3 0.6v0c-1.533 0-2.917-0.293-4.15-0.88-1.233-0.58-2.207-1.52-2.92-2.82-0.72-1.3-1.08-2.983-1.08-5.05v0-28.85h4.5v28.4c0 1.8 0.373 3.133 1.12 4 0.753 0.867 1.797 1.3 3.13 1.3v0c0.633 0 1.257-0.077 1.87-0.23 0.62-0.147 1.147-0.32 1.58-0.52v0l1.1 3.65c-0.6 0.267-1.34 0.5-2.22 0.7-0.887 0.2-1.863 0.3-2.93 0.3zM64.85 0h-4.7l-10.45-24.8 4.1-1.7 8.85 21.4 8.85-21.4 3.85 1.7zM88.8 0.6v0c-2.167 0-4.133-0.55-5.9-1.65-1.767-1.1-3.173-2.66-4.22-4.68-1.053-2.013-1.58-4.387-1.58-7.12v0c0-2.6 0.527-4.933 1.58-7 1.047-2.067 2.497-3.71 4.35-4.93 1.847-1.213 3.97-1.82 6.37-1.82v0c1.5 0 2.86 0.257 4.08 0.77 1.213 0.52 2.27 1.163 3.17 1.93v0-2.1h4.1v19.7c0 1.267 0.31 2.09 0.93 2.47 0.613 0.387 1.287 0.58 2.02 0.58v0l-0.95 3.5c-3.2 0-5.133-1.3-5.8-3.9v0c-0.767 1.067-1.807 2.04-3.12 2.92-1.32 0.887-2.997 1.33-5.03 1.33zM89.8-3.4v0c1.267 0 2.467-0.31 3.6-0.93 1.133-0.613 2.083-1.387 2.85-2.32v0-13.95c-0.9-0.633-1.89-1.143-2.97-1.53-1.087-0.38-2.23-0.57-3.43-0.57v0c-1.6 0-3.007 0.407-4.22 1.22-1.22 0.82-2.18 1.957-2.88 3.41-0.7 1.447-1.05 3.137-1.05 5.07v0c0 1.867 0.35 3.523 1.05 4.97 0.7 1.453 1.667 2.587 2.9 3.4 1.233 0.82 2.617 1.23 4.15 1.23zM114.2 0h-4.5v-26h4.35v5.65c0.433-1.1 1.017-2.127 1.75-3.08 0.733-0.947 1.65-1.713 2.75-2.3 1.1-0.58 2.383-0.87 3.85-0.87v0c0.5 0 1 0.023 1.5 0.07 0.5 0.053 0.917 0.13 1.25 0.23v0l-1.35 4.65c-0.633-0.267-1.383-0.4-2.25-0.4v0c-1.233 0-2.407 0.35-3.52 1.05-1.12 0.7-2.037 1.783-2.75 3.25-0.72 1.467-1.08 3.333-1.08 5.6v0zM139.1 0.6v0c-2.467 0-4.683-0.577-6.65-1.73-1.967-1.147-3.507-2.747-4.62-4.8-1.12-2.047-1.68-4.403-1.68-7.07v0c0-2.8 0.567-5.217 1.7-7.25 1.133-2.033 2.683-3.6 4.65-4.7 1.967-1.1 4.167-1.65 6.6-1.65v0c2.433 0 4.627 0.55 6.58 1.65 1.947 1.1 3.497 2.657 4.65 4.67 1.147 2.02 1.72 4.413 1.72 7.18v0c0 2.767-0.567 5.173-1.7 7.22-1.133 2.053-2.673 3.647-4.62 4.78-1.953 1.133-4.163 1.7-6.63 1.7zM139.1-3.4v0c2.633 0 4.683-0.893 6.15-2.68 1.467-1.78 2.2-4.087 2.2-6.92v0c0-1.733-0.367-3.327-1.1-4.78-0.733-1.447-1.723-2.613-2.97-3.5-1.253-0.88-2.68-1.32-4.28-1.32v0c-2.633 0-4.683 0.867-6.15 2.6-1.467 1.733-2.2 4.033-2.2 6.9v0c0 1.733 0.367 3.34 1.1 4.82 0.733 1.487 1.727 2.67 2.98 3.55 1.247 0.887 2.67 1.33 4.27 1.33z" fill="#000000" fill-rule="nonzero" stroke="none" stroke-width="1" stroke-linecap="butt" stroke-linejoin="miter" stroke-miterlimit="10" stroke-dasharray="" stroke-dashoffset="0" font-family="none" font-weight="none" font-size="none" text-anchor="none" style="mix-blend-mode: normal" data-fill-palette-color="quaternary" opacity="1"></path><path d="M9.25 40.6h-4.75v-35h20.75v4.1h-16v10.7h13.35v3.9h-13.35zM38.65 41.2v0c-3.733 0-6.693-1.193-8.88-3.58-2.18-2.38-3.27-5.72-3.27-10.02v0c0-2.6 0.493-4.927 1.48-6.98 0.98-2.047 2.353-3.663 4.12-4.85 1.767-1.18 3.817-1.77 6.15-1.77v0c2.5 0 4.577 0.54 6.23 1.62 1.647 1.087 2.887 2.547 3.72 4.38 0.833 1.833 1.25 3.85 1.25 6.05v0c0 1.167-0.05 2.3-0.15 3.4v0h-18.2c0.3 2.433 1.15 4.333 2.55 5.7 1.4 1.367 3.25 2.05 5.55 2.05v0c1.5 0 2.85-0.16 4.05-0.48 1.2-0.313 2.35-0.72 3.45-1.22v0l1.05 3.85c-1.2 0.533-2.55 0.977-4.05 1.33-1.5 0.347-3.183 0.52-5.05 0.52zM31.05 25.8v0h14.25c0-2.533-0.633-4.483-1.9-5.85-1.267-1.367-3.017-2.05-5.25-2.05v0c-1.933 0-3.533 0.673-4.8 2.02-1.267 1.353-2.033 3.313-2.3 5.88zM59.95 40.6h-4.5v-26h4.35v5.65c0.433-1.1 1.017-2.127 1.75-3.08 0.733-0.947 1.65-1.713 2.75-2.3 1.1-0.58 2.383-0.87 3.85-0.87v0c0.5 0 1 0.023 1.5 0.07 0.5 0.053 0.917 0.13 1.25 0.23v0l-1.35 4.65c-0.633-0.267-1.383-0.4-2.25-0.4v0c-1.233 0-2.407 0.35-3.52 1.05-1.12 0.7-2.037 1.783-2.75 3.25-0.72 1.467-1.08 3.333-1.08 5.6v0zM79.9 40.6h-4.5v-26h4.35v4.35c0.933-1.4 2.127-2.577 3.58-3.53 1.447-0.947 3.17-1.42 5.17-1.42v0c2.933 0 5.127 0.883 6.58 2.65 1.447 1.767 2.17 4.1 2.17 7v0 16.95h-4.5v-16.45c0-1.867-0.44-3.367-1.32-4.5-0.887-1.133-2.113-1.7-3.68-1.7v0c-1.533 0-2.983 0.54-4.35 1.62-1.367 1.087-2.533 2.363-3.5 3.83v0zM114.95 41.2v0c-2.167 0-4.133-0.55-5.9-1.65-1.767-1.1-3.173-2.66-4.22-4.68-1.053-2.013-1.58-4.387-1.58-7.12v0c0-2.6 0.527-4.933 1.58-7 1.047-2.067 2.493-3.71 4.34-4.93 1.853-1.213 3.98-1.82 6.38-1.82v0c1.5 0 2.86 0.257 4.08 0.77 1.213 0.52 2.27 1.163 3.17 1.93v0-2.1h4.1v19.7c0 1.267 0.31 2.09 0.93 2.47 0.613 0.387 1.287 0.58 2.02 0.58v0l-0.95 3.5c-3.2 0-5.133-1.3-5.8-3.9v0c-0.767 1.067-1.81 2.04-3.13 2.92-1.313 0.887-2.987 1.33-5.02 1.33zM115.95 37.2v0c1.267 0 2.467-0.31 3.6-0.93 1.133-0.613 2.083-1.387 2.85-2.32v0-13.95c-0.9-0.633-1.893-1.143-2.98-1.53-1.08-0.38-2.22-0.57-3.42-0.57v0c-1.6 0-3.007 0.407-4.22 1.22-1.22 0.82-2.18 1.957-2.88 3.41-0.7 1.447-1.05 3.137-1.05 5.07v0c0 1.867 0.35 3.523 1.05 4.97 0.7 1.453 1.667 2.587 2.9 3.4 1.233 0.82 2.617 1.23 4.15 1.23zM140.35 40.6h-4.5v-26h4.35v4.35c0.933-1.4 2.127-2.577 3.58-3.53 1.447-0.947 3.17-1.42 5.17-1.42v0c2.933 0 5.127 0.883 6.58 2.65 1.447 1.767 2.17 4.1 2.17 7v0 16.95h-4.5v-16.45c0-1.867-0.44-3.367-1.32-4.5-0.887-1.133-2.113-1.7-3.68-1.7v0c-1.533 0-2.983 0.54-4.35 1.62-1.367 1.087-2.533 2.363-3.5 3.83v0zM175.3 41.2v0c-2.133 0-4.083-0.55-5.85-1.65-1.767-1.1-3.167-2.66-4.2-4.68-1.033-2.013-1.55-4.387-1.55-7.12v0c0-2.633 0.523-4.983 1.57-7.05 1.053-2.067 2.453-3.7 4.2-4.9 1.753-1.2 3.68-1.8 5.78-1.8v0c1.733 0 3.223 0.35 4.47 1.05 1.253 0.7 2.23 1.417 2.93 2.15v0-13.6h4.5v30.7c0 1.267 0.307 2.09 0.92 2.47 0.62 0.387 1.297 0.58 2.03 0.58v0l-0.95 3.5c-3.167 0-5.1-1.267-5.8-3.8v0c-0.733 1.033-1.76 1.983-3.08 2.85-1.313 0.867-2.97 1.3-4.97 1.3zM176.3 37.2v0c1.233 0 2.407-0.293 3.52-0.88 1.12-0.58 2.063-1.337 2.83-2.27v0-12.9c-0.633-0.8-1.517-1.543-2.65-2.23-1.133-0.68-2.383-1.02-3.75-1.02v0c-1.6 0-3 0.433-4.2 1.3-1.2 0.867-2.127 2.023-2.78 3.47-0.647 1.453-0.97 3.097-0.97 4.93v0c0 1.833 0.35 3.473 1.05 4.92 0.7 1.453 1.657 2.597 2.87 3.43 1.22 0.833 2.58 1.25 4.08 1.25zM206 41.2v0c-3.733 0-6.69-1.193-8.87-3.58-2.187-2.38-3.28-5.72-3.28-10.02v0c0-2.6 0.49-4.927 1.47-6.98 0.987-2.047 2.363-3.663 4.13-4.85 1.767-1.18 3.817-1.77 6.15-1.77v0c2.5 0 4.573 0.54 6.22 1.62 1.653 1.087 2.897 2.547 3.73 4.38 0.833 1.833 1.25 3.85 1.25 6.05v0c0 1.167-0.05 2.3-0.15 3.4v0h-18.2c0.3 2.433 1.15 4.333 2.55 5.7 1.4 1.367 3.25 2.05 5.55 2.05v0c1.5 0 2.85-0.16 4.05-0.48 1.2-0.313 2.35-0.72 3.45-1.22v0l1.05 3.85c-1.2 0.533-2.55 0.977-4.05 1.33-1.5 0.347-3.183 0.52-5.05 0.52zM198.4 25.8v0h14.25c0-2.533-0.633-4.483-1.9-5.85-1.267-1.367-3.017-2.05-5.25-2.05v0c-1.933 0-3.533 0.673-4.8 2.02-1.267 1.353-2.033 3.313-2.3 5.88zM229.8 41.2v0c-1.967 0-3.74-0.25-5.32-0.75-1.587-0.5-2.897-1.15-3.93-1.95v0l1.9-3.75c0.867 0.733 1.96 1.34 3.28 1.82 1.313 0.487 2.72 0.73 4.22 0.73v0c1.867 0 3.277-0.31 4.23-0.93 0.947-0.613 1.42-1.403 1.42-2.37v0c0-0.7-0.173-1.317-0.52-1.85-0.353-0.533-0.997-1.06-1.93-1.58-0.933-0.513-2.283-1.07-4.05-1.67v0c-2.433-0.833-4.257-1.827-5.47-2.98-1.22-1.147-1.83-2.737-1.83-4.77v0c0-2 0.877-3.693 2.63-5.08 1.747-1.38 4.17-2.07 7.27-2.07v0c1.667 0 3.15 0.173 4.45 0.52 1.3 0.353 2.467 0.797 3.5 1.33v0l-1.25 3.7c-0.9-0.533-1.923-0.967-3.07-1.3-1.153-0.333-2.43-0.5-3.83-0.5v0c-1.733 0-3.05 0.35-3.95 1.05-0.9 0.7-1.35 1.467-1.35 2.3v0c0 0.8 0.35 1.483 1.05 2.05 0.7 0.567 2.067 1.183 4.1 1.85v0c3.3 1.1 5.6 2.317 6.9 3.65 1.3 1.333 1.95 3 1.95 5v0c0 2.333-0.94 4.173-2.82 5.52-1.887 1.353-4.413 2.03-7.58 2.03z" fill="#000000" fill-rule="nonzero" stroke="none" stroke-width="1" stroke-linecap="butt" stroke-linejoin="miter" stroke-miterlimit="10" stroke-dasharray="" stroke-dashoffset="0" font-family="none" font-weight="none" font-size="none" text-anchor="none" style="mix-blend-mode: normal" data-fill-palette-color="quaternary" opacity="1"></path></g></svg></g></svg></g></svg></g></svg></g><g></g></svg></g></svg></g></svg></g></svg></g><defs></defs><mask id="872c45cf-51bb-4570-af5e-1038882d97d1"><g id="SvgjsG2257"><svg viewBox="0 0 342.85155851775386 342.85155851775386" height="342.85155851775386" width="342.85155851775386"><g><svg></svg></g><g><svg viewBox="0 0 342.85155851775386 342.85155851775386" height="342.85155851775386" width="342.85155851775386"><g><path d="M0 171.426c0-94.676 76.75-171.426 171.426-171.426 94.676 0 171.426 76.75 171.426 171.426 0 94.676-76.75 171.426-171.426 171.426-94.676 0-171.426-76.75-171.426-171.426zM171.426 339.785c92.982 0 168.359-75.377 168.359-168.359 0-92.982-75.377-168.359-168.359-168.359-92.982 0-168.359 75.377-168.359 168.359 0 92.982 75.377 168.359 168.359 168.359z" fill="white" stroke="transparent"></path><ellipse rx="164.56874808852186" ry="164.56874808852186" cx="171.42577925887693" cy="171.42577925887693" fill="white" stroke="transparent" stroke-width="0" fill-opacity="1"></ellipse></g><g transform="matrix(1,0,0,1,64.84655864529837,134.70862731223892)"><svg viewBox="0 0 213.1584412271571 73.43430389327601" height="73.43430389327601" width="213.1584412271571"><g><svg viewBox="0 0 213.1584412271571 73.43430389327601" height="73.43430389327601" width="213.1584412271571"><g><svg viewBox="0 0 213.1584412271571 73.43430389327601" height="73.43430389327601" width="213.1584412271571"><g><svg viewBox="0 0 213.1584412271571 73.43430389327601" height="73.43430389327601" width="213.1584412271571"><g id="SvgjsG2256"><svg viewBox="0 0 213.1584412271571 73.43430389327601" height="73.43430389327601" width="213.1584412271571" id="SvgjsSvg2255"><g><svg viewBox="0 0 213.1584412271571 73.43430389327601" height="73.43430389327601" width="213.1584412271571"><g transform="matrix(1,0,0,1,0,0)"><svg width="213.1584412271571" viewBox="0.4999999999999991 -37 239.69999999999996 78.20000000000002" height="73.43430389327601" data-palette-color="#000000"><svg></svg><svg></svg><g class="wordmark-text-0" data-fill-palette-color="quaternary" id="SvgjsG2254"><path d="M32.9-1.25l-4.35 1.75-3.9-10h-16.2l-3.9 9.9-4.05-1.65 13.7-33.75h5.2zM16.55-30.3l-6.6 16.8h13.15zM45.3 0.6v0c-1.533 0-2.917-0.293-4.15-0.88-1.233-0.58-2.207-1.52-2.92-2.82-0.72-1.3-1.08-2.983-1.08-5.05v0-28.85h4.5v28.4c0 1.8 0.373 3.133 1.12 4 0.753 0.867 1.797 1.3 3.13 1.3v0c0.633 0 1.257-0.077 1.87-0.23 0.62-0.147 1.147-0.32 1.58-0.52v0l1.1 3.65c-0.6 0.267-1.34 0.5-2.22 0.7-0.887 0.2-1.863 0.3-2.93 0.3zM64.85 0h-4.7l-10.45-24.8 4.1-1.7 8.85 21.4 8.85-21.4 3.85 1.7zM88.8 0.6v0c-2.167 0-4.133-0.55-5.9-1.65-1.767-1.1-3.173-2.66-4.22-4.68-1.053-2.013-1.58-4.387-1.58-7.12v0c0-2.6 0.527-4.933 1.58-7 1.047-2.067 2.497-3.71 4.35-4.93 1.847-1.213 3.97-1.82 6.37-1.82v0c1.5 0 2.86 0.257 4.08 0.77 1.213 0.52 2.27 1.163 3.17 1.93v0-2.1h4.1v19.7c0 1.267 0.31 2.09 0.93 2.47 0.613 0.387 1.287 0.58 2.02 0.58v0l-0.95 3.5c-3.2 0-5.133-1.3-5.8-3.9v0c-0.767 1.067-1.807 2.04-3.12 2.92-1.32 0.887-2.997 1.33-5.03 1.33zM89.8-3.4v0c1.267 0 2.467-0.31 3.6-0.93 1.133-0.613 2.083-1.387 2.85-2.32v0-13.95c-0.9-0.633-1.89-1.143-2.97-1.53-1.087-0.38-2.23-0.57-3.43-0.57v0c-1.6 0-3.007 0.407-4.22 1.22-1.22 0.82-2.18 1.957-2.88 3.41-0.7 1.447-1.05 3.137-1.05 5.07v0c0 1.867 0.35 3.523 1.05 4.97 0.7 1.453 1.667 2.587 2.9 3.4 1.233 0.82 2.617 1.23 4.15 1.23zM114.2 0h-4.5v-26h4.35v5.65c0.433-1.1 1.017-2.127 1.75-3.08 0.733-0.947 1.65-1.713 2.75-2.3 1.1-0.58 2.383-0.87 3.85-0.87v0c0.5 0 1 0.023 1.5 0.07 0.5 0.053 0.917 0.13 1.25 0.23v0l-1.35 4.65c-0.633-0.267-1.383-0.4-2.25-0.4v0c-1.233 0-2.407 0.35-3.52 1.05-1.12 0.7-2.037 1.783-2.75 3.25-0.72 1.467-1.08 3.333-1.08 5.6v0zM139.1 0.6v0c-2.467 0-4.683-0.577-6.65-1.73-1.967-1.147-3.507-2.747-4.62-4.8-1.12-2.047-1.68-4.403-1.68-7.07v0c0-2.8 0.567-5.217 1.7-7.25 1.133-2.033 2.683-3.6 4.65-4.7 1.967-1.1 4.167-1.65 6.6-1.65v0c2.433 0 4.627 0.55 6.58 1.65 1.947 1.1 3.497 2.657 4.65 4.67 1.147 2.02 1.72 4.413 1.72 7.18v0c0 2.767-0.567 5.173-1.7 7.22-1.133 2.053-2.673 3.647-4.62 4.78-1.953 1.133-4.163 1.7-6.63 1.7zM139.1-3.4v0c2.633 0 4.683-0.893 6.15-2.68 1.467-1.78 2.2-4.087 2.2-6.92v0c0-1.733-0.367-3.327-1.1-4.78-0.733-1.447-1.723-2.613-2.97-3.5-1.253-0.88-2.68-1.32-4.28-1.32v0c-2.633 0-4.683 0.867-6.15 2.6-1.467 1.733-2.2 4.033-2.2 6.9v0c0 1.733 0.367 3.34 1.1 4.82 0.733 1.487 1.727 2.67 2.98 3.55 1.247 0.887 2.67 1.33 4.27 1.33z" fill="black" fill-rule="nonzero" stroke="none" stroke-width="1" stroke-linecap="butt" stroke-linejoin="miter" stroke-miterlimit="10" stroke-dasharray="" stroke-dashoffset="0" font-family="none" font-weight="none" font-size="none" text-anchor="none" style="mix-blend-mode: normal" opacity="1"></path><path d="M9.25 40.6h-4.75v-35h20.75v4.1h-16v10.7h13.35v3.9h-13.35zM38.65 41.2v0c-3.733 0-6.693-1.193-8.88-3.58-2.18-2.38-3.27-5.72-3.27-10.02v0c0-2.6 0.493-4.927 1.48-6.98 0.98-2.047 2.353-3.663 4.12-4.85 1.767-1.18 3.817-1.77 6.15-1.77v0c2.5 0 4.577 0.54 6.23 1.62 1.647 1.087 2.887 2.547 3.72 4.38 0.833 1.833 1.25 3.85 1.25 6.05v0c0 1.167-0.05 2.3-0.15 3.4v0h-18.2c0.3 2.433 1.15 4.333 2.55 5.7 1.4 1.367 3.25 2.05 5.55 2.05v0c1.5 0 2.85-0.16 4.05-0.48 1.2-0.313 2.35-0.72 3.45-1.22v0l1.05 3.85c-1.2 0.533-2.55 0.977-4.05 1.33-1.5 0.347-3.183 0.52-5.05 0.52zM31.05 25.8v0h14.25c0-2.533-0.633-4.483-1.9-5.85-1.267-1.367-3.017-2.05-5.25-2.05v0c-1.933 0-3.533 0.673-4.8 2.02-1.267 1.353-2.033 3.313-2.3 5.88zM59.95 40.6h-4.5v-26h4.35v5.65c0.433-1.1 1.017-2.127 1.75-3.08 0.733-0.947 1.65-1.713 2.75-2.3 1.1-0.58 2.383-0.87 3.85-0.87v0c0.5 0 1 0.023 1.5 0.07 0.5 0.053 0.917 0.13 1.25 0.23v0l-1.35 4.65c-0.633-0.267-1.383-0.4-2.25-0.4v0c-1.233 0-2.407 0.35-3.52 1.05-1.12 0.7-2.037 1.783-2.75 3.25-0.72 1.467-1.08 3.333-1.08 5.6v0zM79.9 40.6h-4.5v-26h4.35v4.35c0.933-1.4 2.127-2.577 3.58-3.53 1.447-0.947 3.17-1.42 5.17-1.42v0c2.933 0 5.127 0.883 6.58 2.65 1.447 1.767 2.17 4.1 2.17 7v0 16.95h-4.5v-16.45c0-1.867-0.44-3.367-1.32-4.5-0.887-1.133-2.113-1.7-3.68-1.7v0c-1.533 0-2.983 0.54-4.35 1.62-1.367 1.087-2.533 2.363-3.5 3.83v0zM114.95 41.2v0c-2.167 0-4.133-0.55-5.9-1.65-1.767-1.1-3.173-2.66-4.22-4.68-1.053-2.013-1.58-4.387-1.58-7.12v0c0-2.6 0.527-4.933 1.58-7 1.047-2.067 2.493-3.71 4.34-4.93 1.853-1.213 3.98-1.82 6.38-1.82v0c1.5 0 2.86 0.257 4.08 0.77 1.213 0.52 2.27 1.163 3.17 1.93v0-2.1h4.1v19.7c0 1.267 0.31 2.09 0.93 2.47 0.613 0.387 1.287 0.58 2.02 0.58v0l-0.95 3.5c-3.2 0-5.133-1.3-5.8-3.9v0c-0.767 1.067-1.81 2.04-3.13 2.92-1.313 0.887-2.987 1.33-5.02 1.33zM115.95 37.2v0c1.267 0 2.467-0.31 3.6-0.93 1.133-0.613 2.083-1.387 2.85-2.32v0-13.95c-0.9-0.633-1.893-1.143-2.98-1.53-1.08-0.38-2.22-0.57-3.42-0.57v0c-1.6 0-3.007 0.407-4.22 1.22-1.22 0.82-2.18 1.957-2.88 3.41-0.7 1.447-1.05 3.137-1.05 5.07v0c0 1.867 0.35 3.523 1.05 4.97 0.7 1.453 1.667 2.587 2.9 3.4 1.233 0.82 2.617 1.23 4.15 1.23zM140.35 40.6h-4.5v-26h4.35v4.35c0.933-1.4 2.127-2.577 3.58-3.53 1.447-0.947 3.17-1.42 5.17-1.42v0c2.933 0 5.127 0.883 6.58 2.65 1.447 1.767 2.17 4.1 2.17 7v0 16.95h-4.5v-16.45c0-1.867-0.44-3.367-1.32-4.5-0.887-1.133-2.113-1.7-3.68-1.7v0c-1.533 0-2.983 0.54-4.35 1.62-1.367 1.087-2.533 2.363-3.5 3.83v0zM175.3 41.2v0c-2.133 0-4.083-0.55-5.85-1.65-1.767-1.1-3.167-2.66-4.2-4.68-1.033-2.013-1.55-4.387-1.55-7.12v0c0-2.633 0.523-4.983 1.57-7.05 1.053-2.067 2.453-3.7 4.2-4.9 1.753-1.2 3.68-1.8 5.78-1.8v0c1.733 0 3.223 0.35 4.47 1.05 1.253 0.7 2.23 1.417 2.93 2.15v0-13.6h4.5v30.7c0 1.267 0.307 2.09 0.92 2.47 0.62 0.387 1.297 0.58 2.03 0.58v0l-0.95 3.5c-3.167 0-5.1-1.267-5.8-3.8v0c-0.733 1.033-1.76 1.983-3.08 2.85-1.313 0.867-2.97 1.3-4.97 1.3zM176.3 37.2v0c1.233 0 2.407-0.293 3.52-0.88 1.12-0.58 2.063-1.337 2.83-2.27v0-12.9c-0.633-0.8-1.517-1.543-2.65-2.23-1.133-0.68-2.383-1.02-3.75-1.02v0c-1.6 0-3 0.433-4.2 1.3-1.2 0.867-2.127 2.023-2.78 3.47-0.647 1.453-0.97 3.097-0.97 4.93v0c0 1.833 0.35 3.473 1.05 4.92 0.7 1.453 1.657 2.597 2.87 3.43 1.22 0.833 2.58 1.25 4.08 1.25zM206 41.2v0c-3.733 0-6.69-1.193-8.87-3.58-2.187-2.38-3.28-5.72-3.28-10.02v0c0-2.6 0.49-4.927 1.47-6.98 0.987-2.047 2.363-3.663 4.13-4.85 1.767-1.18 3.817-1.77 6.15-1.77v0c2.5 0 4.573 0.54 6.22 1.62 1.653 1.087 2.897 2.547 3.73 4.38 0.833 1.833 1.25 3.85 1.25 6.05v0c0 1.167-0.05 2.3-0.15 3.4v0h-18.2c0.3 2.433 1.15 4.333 2.55 5.7 1.4 1.367 3.25 2.05 5.55 2.05v0c1.5 0 2.85-0.16 4.05-0.48 1.2-0.313 2.35-0.72 3.45-1.22v0l1.05 3.85c-1.2 0.533-2.55 0.977-4.05 1.33-1.5 0.347-3.183 0.52-5.05 0.52zM198.4 25.8v0h14.25c0-2.533-0.633-4.483-1.9-5.85-1.267-1.367-3.017-2.05-5.25-2.05v0c-1.933 0-3.533 0.673-4.8 2.02-1.267 1.353-2.033 3.313-2.3 5.88zM229.8 41.2v0c-1.967 0-3.74-0.25-5.32-0.75-1.587-0.5-2.897-1.15-3.93-1.95v0l1.9-3.75c0.867 0.733 1.96 1.34 3.28 1.82 1.313 0.487 2.72 0.73 4.22 0.73v0c1.867 0 3.277-0.31 4.23-0.93 0.947-0.613 1.42-1.403 1.42-2.37v0c0-0.7-0.173-1.317-0.52-1.85-0.353-0.533-0.997-1.06-1.93-1.58-0.933-0.513-2.283-1.07-4.05-1.67v0c-2.433-0.833-4.257-1.827-5.47-2.98-1.22-1.147-1.83-2.737-1.83-4.77v0c0-2 0.877-3.693 2.63-5.08 1.747-1.38 4.17-2.07 7.27-2.07v0c1.667 0 3.15 0.173 4.45 0.52 1.3 0.353 2.467 0.797 3.5 1.33v0l-1.25 3.7c-0.9-0.533-1.923-0.967-3.07-1.3-1.153-0.333-2.43-0.5-3.83-0.5v0c-1.733 0-3.05 0.35-3.95 1.05-0.9 0.7-1.35 1.467-1.35 2.3v0c0 0.8 0.35 1.483 1.05 2.05 0.7 0.567 2.067 1.183 4.1 1.85v0c3.3 1.1 5.6 2.317 6.9 3.65 1.3 1.333 1.95 3 1.95 5v0c0 2.333-0.94 4.173-2.82 5.52-1.887 1.353-4.413 2.03-7.58 2.03z" fill="black" fill-rule="nonzero" stroke="none" stroke-width="1" stroke-linecap="butt" stroke-linejoin="miter" stroke-miterlimit="10" stroke-dasharray="" stroke-dashoffset="0" font-family="none" font-weight="none" font-size="none" text-anchor="none" style="mix-blend-mode: normal" opacity="1"></path></g></svg></g></svg></g></svg></g></svg></g><g></g></svg></g></svg></g></svg></g></svg></g><defs><mask></mask></defs></svg><rect width="342.85155851775386" height="342.85155851775386" fill="black" stroke="none" visibility="hidden"></rect></g></mask><linearGradient x1="0.054" x2="0.941" y1="0.5" y2="0.5" id="f9fcf9a9-35c4-4ada-8470-e02b7e06d62e"><stop stop-color="#9c7945" offset="0"></stop><stop stop-color="#faf3aa" offset="0.498"></stop><stop stop-color="#9c7945" offset="1"></stop></linearGradient></svg><rect width="342.85155851775386" height="342.85155851775386" fill="none" stroke="none" visibility="hidden"></rect></g></svg></g></svg>